<svg width="1200" height="900" viewBox="0 0 1200 900" fill="none" xmlns="http://www.w3.org/2000/svg">
  <defs>
    <linearGradient id="bg" x1="160" y1="110" x2="1010" y2="802" gradientUnits="userSpaceOnUse">
      <stop stop-color="#17352E"/>
      <stop offset="1" stop-color="#0B1916"/>
    </linearGradient>
    <linearGradient id="card" x1="319" y1="182" x2="877" y2="706" gradientUnits="userSpaceOnUse">
      <stop stop-color="#183A32"/>
      <stop offset="1" stop-color="#102723"/>
    </linearGradient>
    <linearGradient id="accent" x1="0" y1="0" x2="1" y2="1">
      <stop stop-color="#F2B705"/>
      <stop offset="1" stop-color="#F6D36B"/>
    </linearGradient>
    <linearGradient id="blue" x1="0" y1="0" x2="1" y2="1">
      <stop stop-color="#4FB9FF"/>
      <stop offset="1" stop-color="#1B84D6"/>
    </linearGradient>
    <filter id="shadow" x="185" y="108" width="843" height="705" filterUnits="userSpaceOnUse" color-interpolation-filters="sRGB">
      <feFlood flood-opacity="0" result="BackgroundImageFix"/>
      <feColorMatrix in="SourceAlpha" type="matrix" values="0 0 0 0 0 0 0 0 0 0 0 0 0 0 0 0 0 0 127 0" result="hardAlpha"/>
      <feOffset dy="26"/>
      <feGaussianBlur stdDeviation="34"/>
      <feColorMatrix type="matrix" values="0 0 0 0 0.0205078 0 0 0 0 0.0674224 0 0 0 0 0.0579407 0 0 0 0.42 0"/>
      <feBlend mode="normal" in2="BackgroundImageFix" result="effect1_dropShadow_1_1"/>
      <feBlend mode="normal" in="SourceGraphic" in2="effect1_dropShadow_1_1" result="shape"/>
    </filter>
  </defs>

  <rect width="1200" height="900" rx="48" fill="url(#bg)"/>
  <circle cx="196" cy="160" r="86" fill="#F2B705" fill-opacity="0.12"/>
  <circle cx="1042" cy="132" r="112" fill="#3FA9F5" fill-opacity="0.08"/>
  <circle cx="1041" cy="736" r="132" fill="#F2B705" fill-opacity="0.08"/>

  <g filter="url(#shadow)">
    <rect x="253" y="150" width="707" height="569" rx="34" fill="url(#card)"/>
    <rect x="286" y="184" width="262" height="118" rx="24" fill="#0E221E" stroke="#2B4A42"/>
    <rect x="316" y="214" width="96" height="18" rx="9" fill="#F5F7F6" fill-opacity="0.22"/>
    <rect x="316" y="244" width="132" height="42" rx="16" fill="url(#accent)"/>
    <text x="332" y="272" fill="#0F241F" font-family="Arial, sans-serif" font-size="24" font-weight="700">Estoque</text>
    <text x="458" y="272" fill="#F5F7F6" font-family="Arial, sans-serif" font-size="38" font-weight="700">1.284 kg</text>

    <rect x="286" y="330" width="262" height="155" rx="24" fill="#0E221E" stroke="#2B4A42"/>
    <rect x="316" y="362" width="110" height="18" rx="9" fill="#F5F7F6" fill-opacity="0.22"/>
    <rect x="318" y="418" width="28" height="34" rx="12" fill="#F2B705" fill-opacity="0.35"/>
    <rect x="360" y="394" width="28" height="58" rx="12" fill="#F2B705" fill-opacity="0.55"/>
    <rect x="402" y="372" width="28" height="80" rx="12" fill="url(#accent)"/>
    <rect x="444" y="346" width="28" height="106" rx="12" fill="#F6D36B"/>
    <rect x="486" y="402" width="28" height="50" rx="12" fill="#F2B705" fill-opacity="0.42"/>
    <text x="318" y="472" fill="#C7D1CE" font-family="Arial, sans-serif" font-size="24">Produção semanal</text>

    <rect x="286" y="515" width="262" height="171" rx="24" fill="#0E221E" stroke="#2B4A42"/>
    <rect x="316" y="546" width="98" height="18" rx="9" fill="#F5F7F6" fill-opacity="0.22"/>
    <rect x="316" y="588" width="202" height="18" rx="9" fill="#F5F7F6" fill-opacity="0.08"/>
    <rect x="316" y="620" width="166" height="18" rx="9" fill="#F5F7F6" fill-opacity="0.08"/>
    <rect x="316" y="652" width="192" height="18" rx="9" fill="#F5F7F6" fill-opacity="0.08"/>
    <circle cx="496" cy="572" r="8" fill="#F2B705"/>
    <circle cx="520" cy="572" r="8" fill="#3FA9F5"/>
    <circle cx="472" cy="572" r="8" fill="#4CAF50"/>
    <text x="316" y="579" fill="#F5F7F6" font-family="Arial, sans-serif" font-size="28" font-weight="700">Pedidos e clientes</text>

    <rect x="580" y="184" width="346" height="502" rx="24" fill="#0E221E" stroke="#2B4A42"/>
    <rect x="612" y="216" width="118" height="18" rx="9" fill="#F5F7F6" fill-opacity="0.22"/>
    <rect x="612" y="256" width="282" height="164" rx="18" fill="#132E28"/>
    <path d="M640 364C678 310 721 292 762 304C803 316 819 357 853 361C873 363 886 355 894 346" stroke="url(#blue)" stroke-width="12" stroke-linecap="round"/>
    <path d="M640 344C681 278 737 242 786 254C835 266 853 319 883 326" stroke="url(#accent)" stroke-width="12" stroke-linecap="round" stroke-dasharray="1 22"/>
    <circle cx="640" cy="364" r="10" fill="#3FA9F5"/>
    <circle cx="762" cy="304" r="10" fill="#F2B705"/>
    <circle cx="853" cy="361" r="10" fill="#3FA9F5"/>

    <rect x="612" y="452" width="282" height="92" rx="18" fill="#132E28"/>
    <rect x="638" y="479" width="98" height="14" rx="7" fill="#F5F7F6" fill-opacity="0.22"/>
    <rect x="638" y="509" width="142" height="26" rx="13" fill="url(#accent)"/>
    <text x="650" y="528" fill="#0F241F" font-family="Arial, sans-serif" font-size="18" font-weight="700">Expedição em dia</text>
    <text x="810" y="528" fill="#F5F7F6" font-family="Arial, sans-serif" font-size="34" font-weight="700">97%</text>

    <rect x="612" y="570" width="132" height="84" rx="18" fill="#132E28"/>
    <rect x="762" y="570" width="132" height="84" rx="18" fill="#132E28"/>
    <text x="638" y="606" fill="#C7D1CE" font-family="Arial, sans-serif" font-size="18">Financeiro</text>
    <text x="638" y="635" fill="#F5F7F6" font-family="Arial, sans-serif" font-size="30" font-weight="700">R$ 84 mil</text>
    <text x="788" y="606" fill="#C7D1CE" font-family="Arial, sans-serif" font-size="18">Vendas</text>
    <text x="788" y="635" fill="#F5F7F6" font-family="Arial, sans-serif" font-size="30" font-weight="700">+18%</text>
  </g>

  <path d="M170 592C238 568 286 534 326 482" stroke="#F2B705" stroke-opacity="0.18" stroke-width="8" stroke-linecap="round"/>
  <path d="M880 740C928 706 976 652 1020 566" stroke="#3FA9F5" stroke-opacity="0.16" stroke-width="8" stroke-linecap="round"/>
</svg>
